<mxfile host="65bd71144e">
    <diagram id="HIP3nbAZw_EuaXWnEj3U" name="Page-1">
        <mxGraphModel dx="1152" dy="561" grid="1" gridSize="10" guides="1" tooltips="1" connect="1" arrows="1" fold="1" page="1" pageScale="1" pageWidth="850" pageHeight="1100" math="0" shadow="0">
            <root>
                <mxCell id="0"/>
                <mxCell id="1" parent="0"/>
                <mxCell id="7" value="http://ics2o.mths.ca" style="swimlane;whiteSpace=wrap;html=1;" parent="1" vertex="1">
                    <mxGeometry x="40" y="40" width="760" height="480" as="geometry"/>
                </mxCell>
                <mxCell id="8" value="&lt;font style=&quot;font-size: 36px;&quot;&gt;Dice Roller, in JS&lt;/font&gt;" style="text;html=1;align=center;verticalAlign=middle;resizable=0;points=[];autosize=1;strokeColor=none;fillColor=none;" parent="7" vertex="1">
                    <mxGeometry x="235" y="40" width="300" height="60" as="geometry"/>
                </mxCell>
                <mxCell id="9" value="&lt;font style=&quot;font-size: 24px;&quot;&gt;Please select the number of die you want rolled.&lt;/font&gt;" style="text;html=1;align=center;verticalAlign=middle;resizable=0;points=[];autosize=1;strokeColor=none;fillColor=none;" parent="7" vertex="1">
                    <mxGeometry x="20" y="120" width="530" height="40" as="geometry"/>
                </mxCell>
                <mxCell id="12" value="&lt;font style=&quot;font-size: 14px;&quot;&gt;Dropdown menu with numbers 1 through 6 as options&lt;/font&gt;" style="whiteSpace=wrap;html=1;" parent="7" vertex="1">
                    <mxGeometry x="30" y="220" width="220" height="60" as="geometry"/>
                </mxCell>
                <mxCell id="13" value="&lt;font style=&quot;font-size: 18px;&quot;&gt;#&lt;/font&gt;" style="whiteSpace=wrap;html=1;" parent="7" vertex="1">
                    <mxGeometry x="400" y="180" width="50" height="50" as="geometry"/>
                </mxCell>
                <mxCell id="14" value="&lt;font style=&quot;font-size: 18px;&quot;&gt;#&lt;/font&gt;" style="whiteSpace=wrap;html=1;" parent="7" vertex="1">
                    <mxGeometry x="535" y="180" width="50" height="50" as="geometry"/>
                </mxCell>
                <mxCell id="15" value="&lt;font style=&quot;font-size: 18px;&quot;&gt;#&lt;/font&gt;" style="whiteSpace=wrap;html=1;" parent="7" vertex="1">
                    <mxGeometry x="335" y="180" width="50" height="50" as="geometry"/>
                </mxCell>
                <mxCell id="16" value="&lt;font style=&quot;font-size: 18px;&quot;&gt;#&lt;/font&gt;" style="whiteSpace=wrap;html=1;" parent="7" vertex="1">
                    <mxGeometry x="600" y="180" width="50" height="50" as="geometry"/>
                </mxCell>
                <mxCell id="17" value="&lt;font style=&quot;font-size: 18px;&quot;&gt;#&lt;/font&gt;" style="whiteSpace=wrap;html=1;" parent="7" vertex="1">
                    <mxGeometry x="670" y="180" width="50" height="50" as="geometry"/>
                </mxCell>
                <mxCell id="18" value="&lt;font style=&quot;font-size: 18px;&quot;&gt;#&lt;/font&gt;" style="whiteSpace=wrap;html=1;" parent="7" vertex="1">
                    <mxGeometry x="470" y="180" width="50" height="50" as="geometry"/>
                </mxCell>
                <mxCell id="19" value="&lt;font style=&quot;font-size: 18px;&quot;&gt;Roll Dice!!!&lt;/font&gt;" style="rounded=1;whiteSpace=wrap;html=1;" parent="7" vertex="1">
                    <mxGeometry x="50" y="370" width="120" height="40" as="geometry"/>
                </mxCell>
                <mxCell id="20" value="***Or a different amount of die***" style="text;html=1;align=center;verticalAlign=middle;resizable=0;points=[];autosize=1;strokeColor=none;fillColor=none;" parent="7" vertex="1">
                    <mxGeometry x="430" y="235" width="200" height="30" as="geometry"/>
                </mxCell>
            </root>
        </mxGraphModel>
    </diagram>
</mxfile>